<svg width="24" height="24" viewBox="0 0 24 24" fill="none" xmlns="http://www.w3.org/2000/svg">
<path d="M23.64 14.9016C22.0376 21.3362 15.5237 25.2424 9.0975 23.6411C2.66984 22.051 -1.24543 15.5227 0.359987 9.10461C1.95865 2.67154 8.47634 -1.2429 14.8988 0.358428C21.3302 1.96426 25.2454 8.47307 23.64 14.9061V14.9016ZM17.2904 10.2889C17.5282 8.69884 16.3129 7.84004 14.6489 7.26177L15.1891 5.10841L13.8717 4.77614L13.3489 6.886C13.0045 6.79599 12.6459 6.71799 12.2858 6.63624L12.8102 4.50688L11.4891 4.17911L10.9497 6.34297C10.6647 6.27622 10.3878 6.21021 10.1095 6.14421L8.29705 5.69044L7.9452 7.10126C7.9452 7.10126 8.92271 7.32327 8.8987 7.33527C9.43509 7.47253 9.53187 7.81904 9.51686 8.10106L8.03973 14.0226C7.96546 14.1876 7.79742 14.4299 7.42682 14.3354C7.43882 14.3541 6.46582 14.0976 6.46582 14.0976L5.80565 15.6044L7.51684 16.0304L8.44633 16.2727L7.90319 18.4651L9.22429 18.7891L9.76743 16.6207C10.1268 16.7227 10.4704 16.812 10.8139 16.8945L10.3068 19.0463L11.6272 19.3786L12.1703 17.1878C14.4126 17.613 16.1013 17.445 16.8125 15.4139C17.3827 13.7766 16.7802 12.836 15.5972 12.2188C16.4487 12.023 17.0976 11.4567 17.2769 10.2889H17.2904ZM14.2776 14.5116C13.8755 16.152 11.1208 15.2617 10.2265 15.0389L10.949 12.1408C11.844 12.371 14.7037 12.812 14.2776 14.5116ZM14.6887 10.2694C14.3166 11.7612 12.027 11.0074 11.2806 10.8192L11.9377 8.17906C12.6797 8.35832 15.0743 8.70184 14.6887 10.2649V10.2694Z" fill="#B1FF5C"/>
</svg>
