<svg width="24" height="24" viewBox="0 0 24 24" fill="none" xmlns="http://www.w3.org/2000/svg">
<path fill-rule="evenodd" clip-rule="evenodd" d="M24 12C24 18.6274 18.6274 24 12 24C5.37258 24 0 18.6274 0 12C0 5.37258 5.37258 0 12 0C18.6274 0 24 5.37258 24 12ZM6.6075 12.75L6 14.253H7.4955C8.32275 17.2507 10.2997 18.75 13.425 18.75C14.6138 18.75 15.6383 18.588 16.5 18.264V16.4842C15.5933 16.8547 14.76 17.04 13.9995 17.04C12.9352 17.04 12.1155 16.836 11.5417 16.428C10.9672 16.0192 10.4797 15.2948 10.08 14.253H13.7963L14.3962 12.7507H9.759C9.7365 12.4672 9.72525 12.1462 9.72525 11.787C9.72134 11.5376 9.73538 11.2882 9.76725 11.0407H15.09L15.6975 9.5385H10.1302C10.6657 7.8195 11.868 6.96 13.7377 6.96C14.6894 6.95532 15.6311 7.15374 16.5 7.542V5.649C15.5768 5.38275 14.6025 5.25 13.5773 5.25C10.458 5.25 8.4525 6.6795 7.563 9.53775H6.6075L6 11.04H7.26675C7.239 11.3295 7.22475 11.6415 7.22475 11.9775C7.2251 12.2352 7.2336 12.4928 7.25025 12.75H6.6075Z" fill="#B1FF5C"/>
</svg>
