<svg width="24" height="24" viewBox="0 0 24 24" fill="none" xmlns="http://www.w3.org/2000/svg">
<path d="M22.5932 10.8137C23.1356 11.5223 23.1356 12.4789 22.5932 13.1863C20.8847 15.4137 16.7857 20 12.0002 20C7.21461 20 3.11563 15.4137 1.40716 13.1863C1.14326 12.847 1 12.4296 1 12C1 11.5704 1.14326 11.153 1.40716 10.8137C3.11563 8.58629 7.21461 4 12.0002 4C16.7857 4 20.8847 8.58629 22.5932 10.8137V10.8137Z" stroke="#B1FF5C" stroke-width="2" stroke-linecap="round" stroke-linejoin="round"/>
<path d="M12 16C14.2091 16 16 14.2091 16 12C16 9.79086 14.2091 8 12 8C9.79086 8 8 9.79086 8 12C8 14.2091 9.79086 16 12 16Z" stroke="#B1FF5C" stroke-width="2" stroke-linecap="round" stroke-linejoin="round"/>
</svg>
