<svg width="24" height="24" viewBox="0 0 24 24" fill="none" xmlns="http://www.w3.org/2000/svg">
<path fill-rule="evenodd" clip-rule="evenodd" d="M24 12C24 18.6274 18.6274 24 12 24C5.37258 24 0 18.6274 0 12C0 5.37258 5.37258 0 12 0C18.6274 0 24 5.37258 24 12ZM17.9253 9.33829C18.2474 9.65842 18.5565 9.96564 18.8232 10.2176C18.8903 10.2774 18.9411 10.354 18.9707 10.4399C19.0003 10.5257 19.0076 10.618 18.992 10.7076C18.9309 10.8222 18.8594 10.9306 18.7783 11.0314C18.1521 11.8495 11.9628 19.5319 11.9628 19.5319C11.9628 19.5319 11.6166 20 11.5353 20H11.5011C11.3495 19.9869 11.2683 19.7292 11.2256 19.5935L11.2254 19.5931C10.9004 18.6772 9.96799 16.3927 8.9652 13.9357C7.77909 11.0295 6.49451 7.88205 6 6.47268V6.44862V6.29331L6.01069 6.26487C6.03384 6.19589 6.07182 6.1331 6.12182 6.08112L6.16243 6.04831C6.19971 6.02298 6.24207 6.00654 6.28638 6.00019C6.43621 5.98153 13.7196 7.3725 15.9669 7.80169C16.0917 7.82553 16.2011 7.84641 16.2927 7.86391C16.3787 7.89524 16.4589 7.94108 16.53 7.99953L16.5727 8.03016C16.9947 8.41349 17.4728 8.88863 17.9253 9.33829Z" fill="#B1FF5C"/>
</svg>
