<svg width="24" height="24" viewBox="0 0 24 24" fill="none" xmlns="http://www.w3.org/2000/svg">
<path fill-rule="evenodd" clip-rule="evenodd" d="M12 24C18.6274 24 24 18.6274 24 12C24 5.37258 18.6274 0 12 0C5.37258 0 0 5.37258 0 12C0 18.6274 5.37258 24 12 24ZM14.9502 16.6247C15.4834 16.0081 15.75 15.2729 15.75 14.4191C15.75 14.1401 15.7152 13.8778 15.6455 13.6323C15.5758 13.3867 15.4914 13.1733 15.3923 12.9919C15.2932 12.8105 15.1511 12.6334 14.9663 12.4604C14.7814 12.2874 14.6153 12.1479 14.4679 12.0419C14.3205 11.9358 14.1182 11.8172 13.861 11.6861C13.6038 11.555 13.4001 11.4573 13.2501 11.3931C13.1 11.329 12.883 11.2411 12.599 11.1295C12.3471 11.029 12.1596 10.9523 12.0363 10.8993C11.913 10.8463 11.7509 10.7709 11.55 10.6733C11.349 10.5756 11.199 10.4891 11.0998 10.4138C11.0007 10.3384 10.8949 10.2464 10.7823 10.1376C10.6698 10.0287 10.5907 9.91295 10.5452 9.79018C10.4996 9.66741 10.4769 9.53348 10.4769 9.38839C10.4769 9.00893 10.6376 8.69922 10.9592 8.45926C11.2807 8.21931 11.696 8.09933 12.2051 8.09933C12.4302 8.09933 12.6593 8.13142 12.8924 8.19559C13.1255 8.25977 13.3251 8.33231 13.4912 8.41323C13.6574 8.49414 13.8141 8.58343 13.9615 8.68108C14.1088 8.77874 14.2133 8.85268 14.275 8.9029C14.3366 8.95312 14.3754 8.98661 14.3915 9.00335C14.4612 9.05915 14.5335 9.07868 14.6086 9.06194C14.6889 9.05636 14.7506 9.01172 14.7934 8.92801L15.4445 7.70592C15.5089 7.59431 15.4955 7.48828 15.4044 7.38784C15.3722 7.35435 15.332 7.31529 15.2838 7.27065C15.2355 7.226 15.1311 7.14509 14.9703 7.0279C14.8095 6.91071 14.6394 6.80608 14.4599 6.71401C14.2803 6.62193 14.0472 6.52846 13.7605 6.43359C13.4738 6.33873 13.1777 6.27455 12.8723 6.24107V4.76786C12.8723 4.68973 12.8482 4.62556 12.7999 4.57534C12.7517 4.52511 12.6901 4.5 12.6151 4.5H11.5299C11.4602 4.5 11.3999 4.52651 11.349 4.57952C11.2981 4.63253 11.2727 4.69531 11.2727 4.76786V6.27455C10.4313 6.44196 9.74806 6.81585 9.22289 7.39621C8.69772 7.97656 8.43513 8.65179 8.43513 9.42188C8.43513 9.65067 8.45791 9.8683 8.50346 10.0748C8.54901 10.2813 8.60528 10.4668 8.67226 10.6314C8.73925 10.796 8.83437 10.9579 8.95762 11.1169C9.08088 11.2759 9.19743 11.4127 9.30729 11.5271C9.41715 11.6415 9.5605 11.76 9.73734 11.8828C9.91418 12.0056 10.0656 12.1046 10.1915 12.18C10.3174 12.2553 10.4849 12.3418 10.6939 12.4395C10.9029 12.5371 11.0677 12.611 11.1883 12.6613C11.3088 12.7115 11.4736 12.7812 11.6826 12.8705C11.972 12.9877 12.1863 13.0784 12.3257 13.1426C12.465 13.2068 12.6419 13.296 12.8562 13.4104C13.0706 13.5248 13.2273 13.6295 13.3264 13.7243C13.4256 13.8192 13.5153 13.9364 13.5957 14.0759C13.6761 14.2154 13.7163 14.3633 13.7163 14.5195C13.7163 14.9604 13.5515 15.3008 13.2219 15.5407C12.8924 15.7807 12.5106 15.9007 12.0765 15.9007C11.8782 15.9007 11.6799 15.8783 11.4817 15.8337C10.785 15.6886 10.1339 15.3398 9.52834 14.7874L9.51227 14.7706C9.46404 14.7093 9.39973 14.6842 9.31935 14.6953C9.23361 14.7065 9.17198 14.74 9.13447 14.7958L8.30652 15.9258C8.22614 16.0374 8.23149 16.1518 8.3226 16.269C8.34939 16.3025 8.39628 16.3527 8.46327 16.4196C8.53025 16.4866 8.65485 16.5912 8.83705 16.7335C9.01925 16.8758 9.21753 17.0098 9.43188 17.1353C9.64624 17.2609 9.9182 17.385 10.2478 17.5078C10.5773 17.6306 10.919 17.7171 11.2727 17.7673V19.2321C11.2727 19.3047 11.2981 19.3675 11.349 19.4205C11.3999 19.4735 11.4602 19.5 11.5299 19.5H12.6151C12.6901 19.5 12.7517 19.4749 12.7999 19.4247C12.8482 19.3744 12.8723 19.3103 12.8723 19.2321V17.7673C13.7243 17.6222 14.417 17.2414 14.9502 16.6247Z" fill="#B1FF5C"/>
</svg>
