<svg width="24" height="24" viewBox="0 0 24 24" fill="none" xmlns="http://www.w3.org/2000/svg">
<path d="M12.288 16.092H10.5734V12.7117H13.2709V11.2964H10.5734V7.9164H12.372C12.8341 7.9164 16.1659 7.8642 16.1608 11.849C16.1556 15.8339 12.9293 16.092 12.288 16.092Z" fill="#B1FF5C"/>
<path d="M12 24C5.37252 24 0 18.6275 0 12C0 5.37252 5.37252 0 12 0C18.6275 0 24 5.37252 24 12C24 18.6275 18.6275 24 12 24ZM12.4715 5.5188H8.12568V11.2963H6.59376V12.7116H8.12556V18.4895H11.8554C12.7378 18.4895 18.5821 18.6727 18.5821 11.8957C18.5821 5.00664 12.4715 5.5188 12.4715 5.5188Z" fill="#B1FF5C"/>
</svg>
