<svg width="24" height="24" viewBox="0 0 24 24" fill="none" xmlns="http://www.w3.org/2000/svg">
<path fill-rule="evenodd" clip-rule="evenodd" d="M24 12C24 18.6274 18.6274 24 12 24C5.37258 24 0 18.6274 0 12C0 5.37258 5.37258 0 12 0C18.6274 0 24 5.37258 24 12ZM19.6 8.07839C19.7354 8.3113 19.8143 8.57269 19.8304 8.84159C19.8823 9.15683 19.8414 9.48035 19.7128 9.77279L18.2992 14.2176C18.1711 14.5256 18.0136 14.8206 17.8288 15.0984C17.6053 15.3819 17.3492 15.6381 17.0656 15.8616C16.8283 16.0577 16.5557 16.209 16.3002 16.3508C16.2431 16.3825 16.1869 16.4137 16.132 16.4448C15.8326 16.5548 15.5173 16.6156 15.1984 16.6248H4.49684L5.26004 14.3376H14.908L16.432 9.6624H6.78164L7.54484 7.3752H18.196C18.4803 7.3665 18.7623 7.42834 19.0168 7.55519C19.2664 7.6512 19.48 7.8384 19.6 8.07839ZM4.90724 10.9392H10.5856L9.88004 13.0536H4.14404L4.90724 10.9392Z" fill="#B1FF5C"/>
</svg>
